<svg xmlns="http://www.w3.org/2000/svg" viewBox="0 0 512 512">
  <defs>
    <linearGradient id="grad" x1="0%" y1="0%" x2="100%" y2="100%">
      <stop offset="0%" style="stop-color:#6366f1;stop-opacity:1" />
      <stop offset="100%" style="stop-color:#8b5cf6;stop-opacity:1" />
    </linearGradient>
  </defs>
  <rect width="512" height="512" rx="100" fill="url(#grad)"/>
  <g fill="white">
    <!-- Claws -->
    <path d="M256 80c-97.2 0-176 78.8-176 176s78.8 176 176 176 176-78.8 176-176S353.2 80 256 80z m0 320c-79.5 0-144-64.5-144-144s64.5-144 144-144 144 64.5 144 144-64.5 144-144 144z"/>
    <circle cx="180" cy="200" r="30"/>
    <circle cx="256" cy="170" r="30"/>
    <circle cx="332" cy="200" r="30"/>
    <path d="M256 380c-50 0-92-30-110-73h220c-18 43-60 73-110 73z"/>
    <!-- AI symbol -->
    <circle cx="256" cy="270" r="25" fill="none" stroke="white" stroke-width="8"/>
    <circle cx="256" cy="270" r="8"/>
  </g>
</svg>
